M48
;Layer_Color=9474304
;FILE_FORMAT=2:4
INCH,TZ
;TYPE=PLATED
T1F00S00C0.0059
;TYPE=NON_PLATED
%
T01
X3920Y4400
X3880Y8100
X3960Y9300
X4740Y8930
X4620Y7610
X5410Y6020
X5080Y5480
X4860Y5240
X4600Y5158
X4880Y4710
X7310Y4850
X7660Y4930
X7940Y4940
X8420Y4790
X8996Y4474
X8950Y4020
Y3730
X9394Y3416
X9860Y3340
X9906Y4004
X9660Y4460
X9860Y4840
X10470Y5070
X10496Y5494
X10480Y5750
X9720
X9810Y6211
X10840Y6220
X11312Y6402
X10389Y7119
X10200Y7810
X9640Y7396
X8970Y7250
X8281Y6211
X7760Y6180
X7350Y6170
X7650Y5530
X7885Y5550
X8390Y5720
X7990Y3960
X7820Y3730
X8020Y3530
X7840Y3320
X7150Y3990
X7550Y1510
X9183Y1530
X9400Y1820
X12820Y5860
X13730Y6350
X16400Y5220
X17640Y5210
X19430
X5990Y9200
X20130Y6780
X20510Y3400
X25640Y3620
X26980Y3860
X30080Y4600
X31670Y4300
X33160Y4410
X33520Y4960
X34000Y4100
X33410Y3360
X32890Y7240
X32170Y6890
X32100Y7720
X31270Y7080
X29870Y6720
X29097Y7737
X33820Y9340
X36220Y9080
X36730Y9350
X36550Y8400
X37740Y8300
X43820Y8830
X43450Y9320
X46220
X46000Y10220
X46310Y10540
X46410Y10715
X46730Y10800
X47170Y11190
X46423Y14023
Y14219
Y14416
X46423Y14613
X46127Y13727
X45931
X45734
X45537Y13727
X45340
X45143Y13727
X44946
X45242Y13530
X45130Y13220
X45240Y13050
X44300Y12060
X43840Y12090
X44257Y14416
Y14613
Y14810
Y15007
Y15204
X44946Y15893
X45143
X45340
X45537
X45734
X45931
X46029Y16280
X45070Y18240
X45190Y18420
X45390Y18780
X44580Y18720
X44250Y18450
X42580Y17057
X42124Y17054
X41780Y16010
X42940Y15440
X40430Y15200
X39500Y18600
X40440Y20270
X40610Y20430
X40810Y20510
X40990Y20330
X41100Y20000
X41300
X46830Y21670
X48440Y18800
X48590Y18950
X48740Y19100
X48890Y19250
X38360Y10486
X37500Y11210
X36850Y9530
X35620Y9550
X35792Y9772
X35560Y10730
X30930Y12630
X30030Y14290
X28480Y14110
X28990Y15720
X29500
X32862Y18588
X32698Y18762
X32556Y18904
X32414Y19046
X32273Y19187
X32131Y19329
X31989Y19471
X31848Y19612
X31706Y19754
X31564Y19896
X22270Y16370
X22050
X22550Y15390
X22697Y14760
X22570Y14600
X22270Y14550
X21180Y15750
X24940Y10630
X18200Y15050
X17965Y15365
X17570Y15650
X18400Y15746
X18000Y16200
X17140Y16480
X16300Y15800
X15800Y16030
X16110Y14820
X13790Y16090
X13020Y15540
X12590Y15240
X12490Y11690
X13366Y11540
X10504Y12010
X10741Y12291
X9530Y12470
X8760Y12480
X7930Y11650
X9140Y10950
X9000Y9950
X9840Y10040
X6340Y10130
X6430Y11010
X5547Y9887
X5950Y15140
X8160Y15630
X7020Y18740
X6180Y19520
X8770Y20300
X9710Y20340
X10940Y20470
X12680Y20540
X13580Y20650
X3997Y22313
X3990Y23500
X4160Y23650
X1640Y22000
X270Y10860
X4140Y10800
M30
