G04*
G04 #@! TF.GenerationSoftware,Altium Limited,Altium Designer,19.0.15 (446)*
G04*
G04 Layer_Color=16711935*
%FSLAX24Y24*%
%MOIN*%
G70*
G01*
G75*
%ADD118R,0.0462X0.0922*%
%ADD157C,0.0787*%
%ADD198C,0.0651*%
%ADD199C,0.1320*%
%ADD200R,0.0651X0.0651*%
%ADD201R,0.0651X0.0651*%
%ADD202O,0.0690X0.0414*%
%ADD203O,0.0414X0.0690*%
%ADD204C,0.0761*%
%ADD246R,0.1714X0.1320*%
%ADD247R,0.0934X0.0462*%
D118*
X18400Y17423D02*
D03*
Y18577D02*
D03*
X17400Y17423D02*
D03*
Y18577D02*
D03*
X13400Y17423D02*
D03*
Y18577D02*
D03*
X14400Y17423D02*
D03*
Y18577D02*
D03*
X8400Y17423D02*
D03*
Y18577D02*
D03*
X9400D02*
D03*
Y17423D02*
D03*
X10400Y18577D02*
D03*
Y17423D02*
D03*
X12400Y18577D02*
D03*
Y17423D02*
D03*
X11400Y18577D02*
D03*
Y17423D02*
D03*
X7400D02*
D03*
Y18577D02*
D03*
X16400D02*
D03*
Y17423D02*
D03*
X15400Y18577D02*
D03*
Y17423D02*
D03*
X19400Y18577D02*
D03*
Y17423D02*
D03*
X10400Y22577D02*
D03*
Y21423D02*
D03*
X9400Y22577D02*
D03*
Y21423D02*
D03*
X15400Y22577D02*
D03*
Y21423D02*
D03*
X14400D02*
D03*
Y22577D02*
D03*
X13400Y21423D02*
D03*
Y22577D02*
D03*
X11400Y21423D02*
D03*
Y22577D02*
D03*
X12400Y21423D02*
D03*
Y22577D02*
D03*
X16400D02*
D03*
Y21423D02*
D03*
X7400D02*
D03*
Y22577D02*
D03*
X8400Y21423D02*
D03*
Y22577D02*
D03*
X34000Y21423D02*
D03*
Y22577D02*
D03*
X30000D02*
D03*
Y21423D02*
D03*
X29000Y22577D02*
D03*
Y21423D02*
D03*
X31000Y22577D02*
D03*
Y21423D02*
D03*
X32000Y22577D02*
D03*
Y21423D02*
D03*
X33000D02*
D03*
Y22577D02*
D03*
X27000Y21423D02*
D03*
Y22577D02*
D03*
X28000Y21423D02*
D03*
Y22577D02*
D03*
X25000Y21423D02*
D03*
Y22577D02*
D03*
X21000D02*
D03*
Y21423D02*
D03*
X20000Y22577D02*
D03*
Y21423D02*
D03*
X22000Y22577D02*
D03*
Y21423D02*
D03*
X23000Y22577D02*
D03*
Y21423D02*
D03*
X24000D02*
D03*
Y22577D02*
D03*
X18000Y21423D02*
D03*
Y22577D02*
D03*
X19000Y21423D02*
D03*
Y22577D02*
D03*
X11000Y3577D02*
D03*
Y2423D02*
D03*
X15000D02*
D03*
Y3577D02*
D03*
X16000Y2423D02*
D03*
Y3577D02*
D03*
X14000Y2423D02*
D03*
Y3577D02*
D03*
X13000Y2423D02*
D03*
Y3577D02*
D03*
X12000D02*
D03*
Y2423D02*
D03*
X18000Y3577D02*
D03*
Y2423D02*
D03*
X17000Y3577D02*
D03*
Y2423D02*
D03*
X21000D02*
D03*
Y3577D02*
D03*
X22000D02*
D03*
Y2423D02*
D03*
X23000Y3577D02*
D03*
Y2423D02*
D03*
X25000Y3577D02*
D03*
Y2423D02*
D03*
X24000Y3577D02*
D03*
Y2423D02*
D03*
X20000D02*
D03*
Y3577D02*
D03*
D157*
X50973Y23600D02*
D03*
X5411Y1120D02*
D03*
D198*
X12000Y10000D02*
D03*
Y11000D02*
D03*
X3220Y4490D02*
D03*
X7400Y24500D02*
D03*
Y23500D02*
D03*
X8400D02*
D03*
Y24500D02*
D03*
X10400D02*
D03*
Y23500D02*
D03*
X11400D02*
D03*
Y24500D02*
D03*
X13400Y23500D02*
D03*
Y24500D02*
D03*
X16400Y23500D02*
D03*
X15400Y24500D02*
D03*
Y23500D02*
D03*
X14400Y24500D02*
D03*
Y23500D02*
D03*
X12400Y24500D02*
D03*
Y23500D02*
D03*
X9400D02*
D03*
Y24500D02*
D03*
X27000D02*
D03*
Y23500D02*
D03*
X30000D02*
D03*
Y24500D02*
D03*
X32000Y23500D02*
D03*
Y24500D02*
D03*
X33000Y23500D02*
D03*
Y24500D02*
D03*
X34000Y23500D02*
D03*
X31000Y24500D02*
D03*
Y23500D02*
D03*
X29000Y24500D02*
D03*
Y23500D02*
D03*
X28000D02*
D03*
Y24500D02*
D03*
X18000D02*
D03*
Y23500D02*
D03*
X21000D02*
D03*
Y24500D02*
D03*
X23000Y23500D02*
D03*
Y24500D02*
D03*
X24000Y23500D02*
D03*
Y24500D02*
D03*
X25000Y23500D02*
D03*
X22000Y24500D02*
D03*
Y23500D02*
D03*
X20000Y24500D02*
D03*
Y23500D02*
D03*
X19000D02*
D03*
Y24500D02*
D03*
X18000Y500D02*
D03*
Y1500D02*
D03*
X15000D02*
D03*
Y500D02*
D03*
X13000Y1500D02*
D03*
Y500D02*
D03*
X12000Y1500D02*
D03*
Y500D02*
D03*
X11000Y1500D02*
D03*
X14000Y500D02*
D03*
Y1500D02*
D03*
X16000Y500D02*
D03*
Y1500D02*
D03*
X17000D02*
D03*
Y500D02*
D03*
X25000Y1500D02*
D03*
Y500D02*
D03*
X23000Y1500D02*
D03*
Y500D02*
D03*
X20000Y1500D02*
D03*
X21000Y500D02*
D03*
Y1500D02*
D03*
X22000Y500D02*
D03*
Y1500D02*
D03*
X24000Y500D02*
D03*
Y1500D02*
D03*
X49250Y24000D02*
D03*
X26750Y2250D02*
D03*
D199*
X50500Y18250D02*
D03*
X26000Y5000D02*
D03*
Y16000D02*
D03*
X5500Y3000D02*
D03*
X6000Y22000D02*
D03*
X38000Y3000D02*
D03*
X35500Y22000D02*
D03*
D200*
X12000Y9000D02*
D03*
X3220Y5490D02*
D03*
D201*
X16400Y24500D02*
D03*
X34000D02*
D03*
X25000D02*
D03*
X11000Y500D02*
D03*
X20000D02*
D03*
D202*
X765Y13799D02*
D03*
Y11201D02*
D03*
D203*
X34027Y1400D02*
D03*
X36626D02*
D03*
D204*
X2880Y7590D02*
D03*
Y16929D02*
D03*
Y20157D02*
D03*
D246*
X4500Y6726D02*
D03*
Y18262D02*
D03*
D247*
X24438Y12000D02*
D03*
X26662D02*
D03*
X24438Y13000D02*
D03*
Y14000D02*
D03*
X26662Y13000D02*
D03*
Y14000D02*
D03*
M02*
